HIERARCHY
ROOT Hips
{
	OFFSET 0.00000 0.00000 0.00000
	CHANNELS 6 Xposition Yposition Zposition Yrotation Zrotation Xrotation 
	JOINT Lumbar
	{
		OFFSET 0 0 0
		CHANNELS 3 Zrotation Xrotation Yrotation
		JOINT Neck
		{
			OFFSET 0.00 0.2701 0.00
			CHANNELS 3 Zrotation Xrotation Yrotation
			End Site
			{
				OFFSET 0.00 0.1379 0.00
			}
		}
		JOINT RightShoulder
		{
			OFFSET 0.0119 0.2289 0.1181
			CHANNELS 3 Zrotation Xrotation Yrotation
			JOINT RightElbow
			{
				OFFSET 0.00 -0.1475 0.00
				CHANNELS 2 Zrotation Yrotation
				JOINT RightWrist
				{
					OFFSET 0.00 -0.1605 0.00
					CHANNELS 2 Zrotation Xrotation
					End Site
					{
						OFFSET 0.0040 -0.1068 0.0006
					}
				}
			}
		}
		JOINT LeftShoulder
		{
			OFFSET 0.0119 0.2289 -0.1181
			CHANNELS 3 Zrotation Xrotation Yrotation
			JOINT LeftElbow
			{
				OFFSET 0.00 -0.1475 0.00
				CHANNELS 2 Zrotation Yrotation
				JOINT LeftWrist
				{
					OFFSET 0.00 -0.1605 0.00
					CHANNELS 2 Zrotation Xrotation
					End Site
					{
						OFFSET 0.0040 -0.1068 -0.0006
					}
				}
			}
		}
	}
	JOINT RightHip
	{
		OFFSET 0.0316 -0.0424 0.0458
		CHANNELS 3 Zrotation Xrotation Yrotation
		JOINT RightKnee
		{
			OFFSET 0.00 -0.2438 0.00
			CHANNELS 1 Zrotation
			JOINT RightAnkle
			{
				OFFSET 0.00 -0.2449 0.00
				CHANNELS 3 Zrotation Xrotation Yrotation
				End Site
				{
					OFFSET 0.1237 -0.0542 0.0051
				}
			}
		}
	}
	JOINT LeftHip
	{
		OFFSET 0.0316 -0.0424 -0.0458
		CHANNELS 3 Zrotation Xrotation Yrotation
		JOINT LeftKnee
		{
			OFFSET 0.00 -0.2438 0.00
			CHANNELS 1 Zrotation
			JOINT LeftAnkle
			{
				OFFSET 0.00 -0.2449 0.00
				CHANNELS 3 Zrotation Xrotation Yrotation
				End Site
				{
					OFFSET 0.1237 -0.0542 -0.0051
				}
			}
		}
	}
}
MOTION
Frames: 16
Frame Time: 0.02
-1.40014 0.29187 -0.25339 901.4158 0 14.56125 -15.144 -2.71945 -6.07951 -12.05055 2.80851 -1.59606 32.04502 -25.50305 -7.46656 81.4388 71.03646 -11.97355 0.26136 16.99298 13.93228 -10.42953 93.02252 -100.12145 -42.66756 4.90913 16.53758 -10.01882 -19.92445 -127.68023 17.15067 -17.8156 -14.89035 82.39615 -1.80605 15.87835 -116.76477 16.46648 -9.17136 -9.07382
-1.40059 0.29203 -0.25428 901.523 0 14.62256 -15.09894 -2.77333 -6.20528 -11.15163 2.5738 -1.8704 30.57107 -25.38687 -7.24498 82.14949 71.49833 -12.44194 0.06602 16.44816 14.23239 -10.85235 93.25265 -100.04047 -42.56469 4.91787 16.43991 -9.96391 -20.10878 -127.53758 17.1399 -17.78193 -14.93554 82.19236 -1.241 16.48441 -116.75966 16.45841 -9.0657 -8.82985
-1.40119 0.29221 -0.25519 901.58869 0 14.68896 -15.00791 -2.86071 -6.32793 -10.13459 2.25532 -2.15991 29.12391 -25.32711 -6.9665 83.36955 71.98129 -13.10515 -0.15643 15.75355 14.60005 -11.27278 93.53352 -99.93753 -42.44264 4.92905 16.33164 -9.90495 -20.27073 -127.38779 17.12078 -17.7339 -14.92182 81.96188 -0.64986 17.10778 -116.77493 16.44322 -8.92139 -8.54297
-1.40173 0.29239 -0.25608 901.66802 0 14.75362 -14.93436 -2.93096 -6.44621 -9.17972 1.95849 -2.43947 27.68329 -25.23824 -6.71672 84.41153 72.53003 -13.66885 -0.38353 15.14012 14.95307 -11.70052 93.79164 -99.83866 -42.3279 4.93743 16.2278 -9.84859 -20.43679 -127.24226 17.10622 -17.69386 -14.93717 81.741 -0.07163 17.7217 -116.78095 16.4309 -8.79172 -8.27645
-1.40225 0.29256 -0.25703 901.76926 0 14.81585 -14.87413 -3.01036 -6.58993 -8.18371 1.73021 -2.73284 26.15929 -25.16556 -6.45034 85.23717 72.76771 -14.27642 -0.54225 14.46625 15.2386 -12.10071 94.04837 -99.76689 -42.21864 4.95306 16.12452 -9.78827 -20.62932 -127.09091 17.08844 -17.64743 -14.94534 81.5296 0.51239 18.34482 -116.78709 16.421 -8.67391 -8.00278
-1.40284 0.29275 -0.25786 901.81513 0 14.88396 -14.77482 -3.07841 -6.67983 -7.25136 1.34136 -3.0008 24.82661 -25.07412 -6.20379 86.62917 73.65481 -14.84213 -0.84735 13.88837 15.67909 -12.55825 94.3191 -99.63289 -42.09404 4.95424 16.0178 -9.73512 -20.76099 -126.95028 17.07532 -17.61089 -14.95335 81.29291 1.08971 18.9501 -116.79812 16.40397 -8.52392 -7.7373
-1.40356 0.29299 -0.25838 901.71731 0 14.97194 -14.58899 -3.10512 -6.61824 -6.47504 0.50785 -3.19354 23.89896 -24.89085 -6.06284 89.4793 76.33645 -15.21473 -1.56503 13.56638 16.54921 -13.17398 94.6279 -99.33004 -41.92598 4.91362 15.9062 -9.70782 -20.73089 -126.84448 17.07775 -17.60615 -14.97715 80.98887 1.64566 19.52417 -116.81309 16.36992 -8.27539 -7.47822
-1.40433 0.29325 -0.25878 901.56545 0 15.0649 -14.36376 -3.11966 -6.50319 -5.77628 -0.4799 -3.36018 23.18479 -24.69133 -5.9379 92.87536 79.66642 -15.54303 -2.42573 13.35473 17.56905 -13.84764 94.94685 -98.96594 -41.74408 4.85861 15.79127 -9.68718 -20.64013 -126.74926 17.08501 -17.61168 -15.00213 80.66115 2.19293 20.07542 -116.83296 16.32873 -7.99902 -7.23376
-1.40509 0.2935 -0.25924 901.43888 0 15.15232 -14.15029 -3.14042 -6.41469 -5.07378 -1.38372 -3.53972 22.44718 -24.51557 -5.78276 96.01056 82.69755 -15.91243 -3.21123 13.12287 18.50948 -14.49563 95.25374 -98.63047 -41.57251 4.81092 15.67677 -9.66022 -20.57635 -126.64728 17.08964 -17.61201 -15.02501 80.34708 2.74205 20.62247 -116.85365 16.29 -7.74799 -7.00055
-1.40582 0.29377 -0.25969 901.30752 0 15.25332 -13.9614 -3.15836 -6.31618 -4.23325 -2.35128 -3.71599 21.39583 -24.27171 -5.72291 99.22546 85.75724 -16.20421 -4.042 12.75981 19.50312 -15.14144 95.59438 -98.28882 -41.3838 4.75983 15.5666 -9.64665 -20.51385 -126.55356 17.09591 -17.61434 -15.05247 80.01997 3.30193 21.23176 -116.86261 16.25405 -7.44282 -6.69121
-1.40661 0.29401 -0.26013 901.17418 0 15.32765 -13.71224 -3.18021 -6.22638 -3.70127 -3.21856 -3.89195 21.05349 -24.16633 -5.46835 102.38738 88.89863 -16.63948 -4.81054 12.69763 20.41699 -15.80472 95.86579 -97.9484 -41.22699 4.71264 15.44656 -9.60727 -20.43511 -126.44485 17.09992 -17.61482 -15.07146 79.71462 3.83574 21.70561 -116.89639 16.21111 -7.24335 -6.54329
-1.40753 0.29418 -0.26055 901.04591 0 15.32273 -13.30922 -3.20393 -6.16894 -3.99388 -3.79678 -4.07932 22.57114 -24.43595 -4.68049 105.34969 92.21245 -17.5245 -5.385 13.44475 21.10455 -16.50934 95.94912 -97.60407 -41.16864 4.6773 15.30176 -9.49096 -20.32202 -126.29587 17.09742 -17.61038 -15.06647 79.47668 4.31014 21.81201 -117.00194 16.14703 -7.35109 -6.84797
-1.4085 0.29432 -0.26096 900.91832 0 15.29149 -12.8466 -3.23402 -6.12285 -4.59655 -4.26343 -4.26608 24.8023 -24.84692 -3.6955 108.2207 95.56538 -18.54638 -5.88914 14.49034 21.7005 -17.22806 95.96108 -97.26744 -41.14186 4.64681 15.14688 -9.34911 -20.1957 -126.13083 17.09235 -17.60332 -15.05307 79.26152 4.75638 21.78251 -117.13145 16.07682 -7.56471 -7.31273
-1.40945 0.29448 -0.26138 900.79227 0 15.27526 -12.40962 -3.26888 -6.07492 -5.06335 -4.76409 -4.44915 26.7378 -25.20087 -2.79485 111.08028 98.83232 -19.47674 -6.41722 15.39674 22.31816 -17.93571 96.00191 -96.9419 -41.09587 4.61569 14.99555 -9.22172 -20.07827 -125.97075 17.08792 -17.59573 -15.04427 79.03481 5.2087 21.81471 -117.24688 16.0119 -7.72455 -7.69774
-1.4104 0.29462 -0.26177 900.65611 0 15.24671 -11.97737 -3.27115 -6.0118 -5.51131 -5.34117 -4.64807 28.56415 -25.52548 -1.91433 114.18911 102.41374 -20.52994 -6.98504 16.32286 23.02571 -18.66557 96.05843 -96.55228 -41.06907 4.57745 14.8484 -9.08292 -19.94615 -125.82079 17.08592 -17.59567 -15.03298 78.81146 5.68964 21.84694 -117.37563 15.93641 -7.90757 -8.11337
-1.41137 0.29479 -0.26222 900.54239 0 15.23704 -11.5216 -3.34277 -5.98288 -6.07137 -5.72992 -4.81417 30.77934 -25.9429 -0.94806 116.74182 105.33618 -21.35976 -7.45043 17.27612 23.52168 -19.35115 96.06487 -96.29918 -41.01105 4.55535 14.69024 -8.9612 -19.8428 -125.64595 17.07813 -17.57929 -15.02386 78.58789 6.10371 21.8464 -117.48267 15.88127 -8.0675 -8.50235
